@startuml

[First Component]
[Another component] as Comp2  
component Comp3
component [Last\ncomponent] as Comp4

() "First Interface"
() "Another interface" as Interf2
interface Interf3
interface "Last\ninterface" as Interf4

interface "Data Access" as DA

DA - [First Component] 
[First Component] ..> HTTP : use

note left of HTTP : Web Service only

note right of [First Component]
  A note can also
  be on several lines
end note

package "Some Group" {
  HTTP - [First Component]
  [Another Component]
}
 
node "Other Groups" {
  FTP - [Second Component]
  [First Component] --> FTP
} 

cloud {
  [Example 1]
}


database "MySql" {
  folder "This is my folder" {
	[Folder 3]
  }
  frame "Foo" {
	[Frame 4]
  }
}


[Another Component] --> [Example 1]
[Example 1] --> [Folder 3]
[Folder 3] --> [Frame 4]

@enduml